<?xml version="1.0" encoding="utf-8"?>
<!-- Generator: Adobe Illustrator 16.0.0, SVG Export Plug-In . SVG Version: 6.00 Build 0)  -->
<!DOCTYPE svg PUBLIC "-//W3C//DTD SVG 1.1//EN" "http://www.w3.org/Graphics/SVG/1.1/DTD/svg11.dtd">
<svg version="1.1" id="Layer_1" xmlns="http://www.w3.org/2000/svg" xmlns:xlink="http://www.w3.org/1999/xlink" x="0px" y="0px"
	 width="500px" height="500px" viewBox="0 0 500 500" enable-background="new 0 0 500 500" xml:space="preserve">
<rect x="15" y="15" fill="none" width="470" height="470"/>
<path opacity="0.2" fill="#9E4E27" d="M467.784,187.761c-0.216-0.24-0.53-0.365-0.935-0.371c-0.087-0.001-0.201-0.103-0.214-0.112
	c-0.065-0.626-0.193-1.241-0.314-1.834c-0.289-1.401-0.562-2.724-0.021-4.056c0.248-0.608,0.826-2.029-0.449-2.937
	c-0.946-0.674-2.061-0.922-3.132-0.697c-1.09,0.228-2.027,0.915-2.639,1.935c-0.021,0.036-0.094,0.106-0.324,0.249
	c-0.95,0.591-2.03,0.875-3.174,1.174c-1.107,0.292-2.253,0.592-3.324,1.197c-0.933,0.525-2.128,0.619-3.653,0.283
	c-1.224-0.269-2.224,0.278-3.105,0.762c-1.48,0.809-2.458,0.944-3.38,0.456c-0.773-0.407-1.469-0.379-2.188,0.088
	c-0.495,0.32-0.983,0.653-1.473,0.986c-0.79,0.539-1.606,1.095-2.434,1.58c-0.819,0.48-1.289,0.712-2.174,0.297
	c-1.538-0.723-2.925-0.85-4.014-0.373c-0.98,0.431-1.887,1.009-2.762,1.57l-0.234,0.148c-1.485,0.948-2.774,1.522-4.238,1.24
	c-2.158-0.413-3.872-1.715-5.239-3.981c-0.133-0.218-0.253-0.439-0.374-0.659c-0.551-1.003-1.175-2.139-2.667-2.738
	c-0.272-0.11-0.536-0.163-0.787-0.19c0.334-0.256,0.624-0.478,0.933-0.555c1.25-0.31,1.439-1.083,1.458-1.873
	c0.05-2.112-2.477-6.097-4.387-6.893c-0.075-0.043-0.199-0.116-0.361-0.152c-1.563-0.331-2.455-1.053-2.89-2.341
	c-0.17-0.505-0.53-0.86-0.847-1.173c-0.118-0.115-0.234-0.229-0.331-0.349c-0.625-0.768-1.426-1.226-2.2-1.669
	c-0.868-0.494-1.687-0.961-2.154-1.842c-0.58-1.092-1.375-2.587-3.018-2.893c-0.945-0.178-1.74-0.678-2.583-1.209
	c-0.61-0.384-1.241-0.782-1.954-1.066c-0.054-0.021-0.064-0.025-0.168-0.251c-0.042-0.094-0.087-0.19-0.14-0.285
	c-0.708-1.281-2.211-2.389-3.606-1.928c-0.836,0.281-1.203-0.354-1.209-0.354l0,0c-0.205-0.872-0.713-1.542-1.163-2.134
	c-0.468-0.615-0.871-1.146-0.941-1.823c-0.234-2.199-1.001-4.253-1.743-6.241l-0.038-0.105c-1.057-2.832-2.241-5.508-5.089-7.117
	l-0.188-0.104c-0.6-0.335-1.074-0.599-1.349-1.252c-0.486-1.156-1.845-1.845-2.952-2.105c-0.744-0.173-0.982-0.462-1.126-0.869
	c-0.117-0.33-0.242-0.66-0.369-0.993c-0.415-1.093-0.809-2.126-0.892-3.165c-0.097-1.201-0.289-2.396-0.476-3.555
	c-0.323-1.997-0.627-3.882-0.491-5.828c0.044-0.623-0.231-1.031-0.519-1.397c-1.023-1.308-2.083-2.659-1.903-4.419
	c0.074-0.741-0.333-1.416-1.063-1.761c-0.79-0.373-1.458-0.969-2.164-1.6c-1.024-0.916-2.083-1.86-3.606-2.199
	c-0.021-0.028-0.052-0.069-0.073-0.1c-0.076-0.106-0.17-0.239-0.31-0.356c-0.676-0.571-1.01-1.375-1.364-2.23
	c-0.147-0.353-0.298-0.717-0.479-1.075l-0.002-0.454c-0.004-0.352-0.006-0.704-0.011-1.056c0.595,0.427,1.086,0.214,1.289,0.088
	c0.438-0.275,0.835-0.814,0.24-1.821l-0.045-0.075c-0.192-0.331-0.412-0.707-0.894-1.018c-1.828-1.177-2.992-2.395-3.776-3.951
	c-0.145-0.287-0.275-0.592-0.407-0.898c-0.424-0.992-0.901-2.108-1.938-2.871c-0.675-2.098-2.023-3.737-3.331-5.323l-0.286-0.35
	c-0.272-0.681-0.608-1.326-0.933-1.952c-0.559-1.082-1.087-2.103-1.299-3.251c-0.139-0.745-0.382-1.589-1.141-2.207
	c-0.048-0.04-0.148-0.122-0.226-0.189c0.035-0.074,0.081-0.164,0.125-0.248l0.06-0.12c0.218-0.427,0.236-0.902,0.065-1.354
	c0.978,0.464,1.912,0.493,2.613,0.069c0.432-0.26,1.147-0.932,1.07-2.492c-0.105-2.119,0.485-4.18,1.055-6.174l0.197-0.696
	c0.841-2.993,0.274-5.631-1.838-8.536c-0.317-1.857-1.246-3.405-2.094-4.779c0-0.016,0-0.031,0-0.047
	c-0.001-0.263-0.002-0.703-0.346-1.026c-0.235-0.222-0.564-0.325-0.986-0.298l-0.21,0.011c-0.517,0.023-1.103,0.05-1.678,0.407
	c-1.165,0.726-2.03,0.811-2.898,0.284c-1.249-0.758-2.276-0.256-3.031,0.265c-0.205,0.141-0.372,0.312-0.534,0.477
	c-0.278,0.286-0.417,0.404-0.55,0.425c-0.545-0.802-1.364-1.188-2.097-1.533c-0.686-0.323-1.278-0.603-1.619-1.156
	c-0.146-0.237-0.408-0.383-0.78-0.431c-0.224-0.029-0.776-0.06-1.115,0.264c-0.497,0.473-0.848,0.375-1.724-0.028
	c-0.225-0.104-0.448-0.205-0.672-0.283c-0.576-0.201-1.426-0.387-2.196-0.13c-2.446,0.817-5.023,1.763-7.288,3.493
	c-0.197,0.152-0.395,0.313-0.592,0.475c-1.007,0.826-1.881,1.546-3.119,1.178c-0.978-1.101-2.344-1.21-3.353-1.291
	c-0.332-0.026-0.643-0.002-0.946,0.021c-0.492,0.039-0.919,0.071-1.241-0.134c-0.67-0.423-1.376-0.609-2.059-0.789
	c-0.612-0.162-1.19-0.314-1.735-0.63c-1.379-0.797-3.081-0.911-4.729-1.02c-0.629-0.042-1.279-0.085-1.885-0.167
	c-1.766-0.72-3.439-0.26-4.551,0.15c-0.693,0.259-0.749,0.234-1.004-0.391c-1.131-2.792-1.962-2.977-4.757-2.508
	c-0.905,0.153-1.566,0.167-2.058-0.23c-1.105-0.894-2.3-0.98-3.213-0.958c-0.976,0.041-1.397-0.342-1.477-1.268
	c-0.005-0.059-0.007-0.12-0.01-0.183c-0.015-0.357-0.053-1.305-0.984-1.452c-0.677-0.104-1.321-0.355-2.004-0.621
	c-0.689-0.27-1.401-0.547-2.176-0.677c-2.326-0.39-4.321-0.265-6.466,0.412c-1.998,0.628-4.301,1.431-6.354,3.002
	c-2.497,1.914-3.213,5.129-1.668,7.482c0.796,1.21,0.536,1.907-0.303,2.924c-2.58,3.128-4.133,3.493-6.644,1.563l-0.104-0.081
	c-1.109-0.854-2.258-1.735-3.688-2.374c-2.456-1.091-5.239-2.332-8.397-2.394c-3.64-0.072-5.188-1.481-5.714-5.197
	c-0.13-0.913-0.415-2.813-2.663-2.681c-0.318,0.021-0.711-0.104-1.122-0.231c-0.227-0.07-0.452-0.141-0.677-0.195
	c-0.65-0.152-1.245-0.518-1.873-0.903c-0.88-0.542-1.792-1.101-2.982-1.179c-0.538-0.035-1.082-0.199-1.659-0.372
	c-1.161-0.351-2.479-0.747-3.948-0.074c-1.146,0.528-2.313,0.329-3.785-0.639c-0.982-0.646-1.938-1.062-3.006-1.305
	c-0.142-0.032-0.301-0.063-0.469-0.094c-0.829-0.156-1.521-0.32-1.586-0.744c-0.08-0.509-0.22-0.982-0.354-1.44
	c-0.152-0.51-0.295-0.995-0.338-1.479c-0.095-1.052-0.612-1.588-1.537-1.593l-0.15-0.003c-0.396-0.015-1.438-0.048-1.567,1.297
	c-0.003,0.023-0.032,0.093-0.105,0.15c-0.068,0.053-0.144,0.076-0.23,0.062c-0.656-0.091-1.096-0.537-1.522-1.539
	c-0.074-0.173-0.271-0.638,0.559-1.012c1.938-0.87,3.476-2.172,4.705-3.985c0.843-1.244,1.073-2.335,0.823-3.892
	c-0.208-1.292-0.532-2.513-2.183-3.255c-0.236-0.107-0.453-0.52-0.515-0.985c-0.06-0.457,0.055-0.715,0.091-0.749
	c1.105-0.393,1.725-1.165,2.273-1.845c0.229-0.284,0.445-0.554,0.687-0.789c0.738-0.714,0.945-1.526,0.653-2.557
	c-0.261-0.92-1.01-1.143-1.507-1.291c-0.23-0.067-0.448-0.132-0.549-0.238c-0.336-0.352-0.869-0.352-1.239,0
	c-0.382,0.364-0.53,1.029-0.147,1.449c-0.01,0.003-0.02,0.006-0.028,0.008c-0.434,0.005-0.761,0.177-1.021,0.366
	c-0.031-0.121-0.065-0.236-0.098-0.347c-0.076-0.255-0.142-0.477-0.132-0.669l0.004-0.075c0.024-0.429,0.075-1.32-0.991-1.666
	c-1.85-0.598-4.57-1.192-6.823,0.526c-1.083,0.829-2.304,0.919-3.597,1.015c-0.759,0.057-1.542,0.115-2.321,0.325
	c-0.094-0.158-0.249-0.379-0.517-0.5c-0.418-0.384-0.923-0.542-1.337-0.67c-0.173-0.055-0.346-0.107-0.507-0.179
	c-0.106-0.048-1.058-0.459-1.788-0.113c-0.31,0.147-0.528,0.411-0.617,0.741c-0.017,0.062-0.033,0.111-0.046,0.145
	c-0.06-0.012-0.132-0.031-0.188-0.046l-0.163-0.041c-0.179-0.042-0.392-0.071-0.604-0.099c-0.152-0.019-0.389-0.049-0.515-0.084
	c-0.696-1.221-1.63-1.12-2.335-0.863l-0.082-0.224l-0.737,0.596c-0.043,0.034-0.1,0.059-0.152,0.087
	c-0.163,0.086-0.542,0.289-0.713,0.684c-0.293,0.042-0.575,0.104-0.852,0.165c-0.553,0.122-1.076,0.237-1.581,0.153
	c-0.295-0.047-0.994-0.052-1.4,0.855c-0.059,0.017-0.162,0.009-0.414-0.029c-0.049-0.007-0.102-0.017-0.156-0.024
	c-0.035-0.33-0.259-0.53-0.461-0.648c-0.134-0.214-0.353-0.388-0.676-0.44c-0.327-0.296-0.662-0.348-0.941-0.32
	c-1.869-0.369-4.303-0.735-6.802-0.434c-0.124,0.014-0.32,0.071-0.468,0.273c-0.742,0.313-1.575,0.354-2.266,0.104
	c-0.868-0.313-1.875-0.483-2.741,0.618l-0.137,0.152c-0.05,0.021-0.101,0.042-0.152,0.065c-0.057,0.025-0.138,0.062-0.188,0.078
	c-1.451-0.335-2.865-0.187-4.233-0.042c-1.093,0.114-2.124,0.223-3.149,0.096l-0.168-0.024c-0.447-0.065-1.155-0.169-1.728,0.336
	c-0.229,0.04-0.482,0.155-0.721,0.413c-0.121,0.032-0.261,0.053-0.407,0.075c-0.415,0.06-0.92,0.133-1.362,0.512
	c-0.098,0.027-0.198,0.047-0.299,0.068c-0.321,0.067-0.738,0.155-1.106,0.438c-0.204,0.028-0.427,0.113-0.644,0.306
	c-0.318,0.053-0.603,0.244-0.847,0.568c-0.338,0.254-0.532,0.549-0.577,0.879l-0.09,0.086c-0.227,0.236-0.418,0.316-0.438,0.323
	c-0.463-0.48-0.921-0.715-1.402-0.715c0,0-0.001,0-0.002,0c-0.644,0.002-1.134,0.423-1.527,0.834c-0.096,0.1-0.309,0.11-0.646,0.115
	c-0.094,0.001-0.188,0.002-0.281,0.007c-0.102,0.004-0.204-0.007-0.309-0.015c-0.438-0.039-1.167-0.099-1.685,0.6l-0.031,0.033
	c-0.329,0.045-0.623,0.238-0.876,0.576c-0.338,0.254-0.532,0.548-0.577,0.879l-0.159,0.158l-0.053,0.1
	c-0.043,0.03-0.229,0.049-0.339,0.061c-0.348,0.039-0.923,0.099-1.296,0.619l-0.028,0.03c-0.235,0.035-0.493,0.148-0.738,0.409
	c-0.584,0.162-1.202,0.033-1.851-0.102c-0.502-0.106-1.025-0.213-1.557-0.198c-1.268,0.036-1.546-0.274-1.743-1.297
	c-0.133-0.692-0.608-0.977-1.009-1.013c-0.478-0.041-0.948,0.241-1.117,0.677c-0.128,0.333-0.334,0.414-0.889,0.567
	c-0.168,0.047-0.348,0.095-0.529,0.165c-0.571-0.424-1.233-0.437-1.788-0.448l-0.192-0.005c-0.557-0.017-1.11,0.004-1.647,0.024
	c-1.175,0.042-2.29,0.083-3.358-0.243l-0.515-0.631c-0.479-0.585-0.958-1.17-1.421-1.767c-0.078-0.1-0.09-0.375-0.1-0.618
	c-0.023-0.532-0.067-1.522-1.139-1.826c-0.623-0.174-1.217-0.024-1.742,0.111c-0.396,0.101-0.771,0.195-1.095,0.139
	c-0.827-0.151-1.197,0.271-1.358,0.651c-0.622,1.47-1.488,2.863-2.326,4.212c-0.638,1.026-1.298,2.085-1.862,3.196
	c-0.793,0.61-1.708,1.467-2.166,2.769c-0.138,0.104-0.297,0.201-0.464,0.302c-0.393,0.239-0.829,0.506-1.157,0.951
	c-0.765,0.085-1.413,0.421-1.992,0.723c-0.33,0.169-0.64,0.33-0.955,0.443c-0.705,0.25-1.461,0.452-2.192,0.648
	c-2.228,0.596-4.533,1.214-6.231,3.278c-0.325,0.395-0.79,0.702-1.282,1.027c-0.865,0.569-1.844,1.215-2.214,2.496l-0.131,0.465
	c-0.175,0.626-0.34,1.219-0.601,1.768l-2.315,2.314c-1.461,1.182-1.768,2.825-2.041,4.277c-0.086,0.458-0.167,0.891-0.279,1.311
	l-0.043,0.157c-0.247,0.914-0.554,2.051,0.205,3.105c0.387,0.539,0.375,1.06-0.038,1.547c-0.481,0.572-0.948,1.162-1.414,1.752
	c-1.834,2.321-3.565,4.513-6.31,5.679c-0.139,0.06-0.28,0.116-0.421,0.172c-0.673,0.269-1.435,0.572-2.092,1.214
	c-2.085,2.037-4.683,3.129-8.174,3.434c-0.229,0.021-0.517,0.004-0.822-0.013c-1.114-0.067-2.786-0.161-3.519,1.693l-0.532,0.548
	c-1.655,1.984-2.801,4.211-3.624,5.979c-0.261,0.125-0.521,0.253-0.78,0.381c-0.753,0.373-1.465,0.724-2.21,1
	c-0.143,0.053-0.286,0.103-0.429,0.153c-1.223,0.434-2.745,0.971-3.135,2.91c-0.016,0.079-0.153,0.25-0.252,0.375
	c-0.127,0.159-0.271,0.34-0.384,0.555c-0.264,0.509-0.581,0.994-0.917,1.505c-0.869,1.326-1.767,2.696-1.77,4.587
	c-0.001,0.882-0.618,1.789-1.534,2.258c-1.146,0.584-2.071,1.405-2.965,2.2c-0.784,0.696-1.525,1.354-2.387,1.843l-0.703,0.668
	c-0.43,0.3-0.707,0.779-0.803,1.396c-0.142,0.903-0.644,1.672-1.175,2.488c-0.447,0.687-0.909,1.395-1.184,2.228
	c-0.423,0.268-0.668,0.667-0.709,1.157l-0.218,0.319c-0.271,0.397-0.543,0.793-0.804,1.194c-0.12,0.186-0.188,0.376-0.247,0.544
	c-0.031,0.087-0.078,0.219-0.051,0.22c0,0-0.021,0.005-0.071,0.001c-1.373-0.098-1.98,0.872-2.424,1.58l-0.079,0.126
	c-1.174,1.86-1.736,3.917-2.279,5.908c-0.149,0.544-0.298,1.088-0.459,1.629c-0.031,0.11-0.079,0.228-0.126,0.35
	c-0.189,0.481-0.423,1.081-0.14,1.625c0.111,0.214,0.347,0.494,0.84,0.613c0.505,0.123,0.848-0.018,1.045-0.158
	c0.093-0.065,0.17-0.14,0.235-0.22c0.116,0.812,0.424,1.946,1.241,2.08c0.379,0.062,0.44,0.195,0.62,0.59
	c0.06,0.13,0.125,0.273,0.21,0.419c0.021,0.156,0.048,0.308,0.076,0.462c0.067,0.371,0.125,0.692,0.077,1.079
	c-0.029,0.23-0.157,0.342-0.49,0.581c-0.324,0.232-0.837,0.601-0.897,1.289c-0.365,0.501-0.315,1.054-0.28,1.438
	c0.01,0.119,0.021,0.233,0.018,0.329c-1.22,1.441-0.536,2.532-0.173,2.944c0.172,0.196,0.308,0.44,0.454,0.701
	c0.159,0.287,0.334,0.604,0.583,0.893c-0.009,0.892,0.091,1.769,0.189,2.62c0.127,1.111,0.247,2.164,0.137,3.219
	c-0.463,0.867-0.586,1.768-0.616,2.576c-0.329,0.341-0.3,0.8-0.289,0.979c0.001,0.012,0.002,0.025,0.003,0.038
	c-0.605,0.868-1.081,1.808-1.417,2.797c-0.199,0.15-0.326,0.375-0.379,0.672c-0.176,0.166-0.282,0.402-0.317,0.708
	c-0.285,0.314-0.478,0.687-0.574,1.11c-0.337,0.302-0.354,0.723-0.345,0.946c-0.333,0.34-0.31,0.798-0.298,0.983
	c-0.456,0.536-0.57,1.161-0.614,1.662c-0.34,3.771-2.268,6.534-5.887,8.444c-0.032,0.015-0.07,0.024-0.108,0.036
	c-0.688,0.217-1.008,0.644-0.95,1.268c0.042,0.465,0.224,0.839,0.524,1.085c0.27,0.219,0.609,0.312,0.985,0.27
	c0.274-0.029,0.381-0.006,0.594,0.689c0.188,0.62,0.499,1.169,0.798,1.7c0.503,0.894,0.938,1.665,0.759,2.613l-0.124,0.653
	l0.649,0.135c0.028,0.006,0.051,0.012,0.067,0.017c0,0.065-0.009,0.162-0.015,0.231c-0.022,0.23-0.049,0.527,0.05,0.824
	c-0.286-0.01-0.595,0.037-0.836,0.282c-0.101,0.103-0.254,0.313-0.253,0.65l-0.013,0.034c-0.065,0.171-0.154,0.408-0.159,0.656
	l-0.002,0.112c-0.026,1.366-0.05,2.654-0.264,3.964c-0.172,1.05-0.627,3.839,2.191,4.942c0.021,0.041,0.022,0.173,0.022,0.246
	c0,0.056,0,0.106,0.003,0.152c0.055,0.901,0.407,1.48,0.868,1.878c-0.289,0.039-0.588,0.137-0.885,0.3
	c-0.553,0.302-0.711,0.686-0.746,0.955c-0.033,0.258,0.027,0.486,0.131,0.688c-0.532,0.178-0.685,0.62-0.708,1.003
	c-0.031,0.513,0.147,1.144,1.173,1.233c0.03,0.002,0.06,0.005,0.089,0.007c0.09,0.113,0.202,0.186,0.318,0.233
	c-0.015,0.379,0.045,0.886,0.415,1.234c0.534,0.502,1.276,0.338,1.872,0.207l0.229-0.049c0.472-0.094,0.831-0.342,1.147-0.56
	c0.347-0.239,0.575-0.386,0.859-0.389c0.354-0.002,0.693-0.219,0.94-0.5c0.175,0.788,0.761,1.275,1.245,1.678
	c0.415,0.344,0.773,0.642,0.857,1.057c0.063,0.315,0.293,0.561,0.599,0.642c0.446,0.119,0.93-0.139,1.188-0.433
	c0.022-0.024,0.043-0.048,0.065-0.075c0.204,0.635,0.351,1.25,0.297,1.876c-0.016,0.185,0.03,0.45,0.307,0.644
	c0.292,0.288,0.541,0.632,0.803,0.996c0.522,0.724,1.114,1.543,2.179,2.023c0.583,0.262,1.101,0.785,1.648,1.339
	c0.258,0.261,0.515,0.521,0.782,0.759c0.008,0.007,0.016,0.014,0.023,0.021c-0.006,0-0.012,0.002-0.019,0.002
	c-0.178,0.038-0.55,0.112-0.776,0.458c-0.217,0.333-0.168,0.715-0.113,0.973l0.149,0.679l0.676-0.166
	c1.153-0.284,1.372,0.125,1.887,1.469c0.077,0.198,0.154,0.399,0.239,0.6c0.189,0.451,0.19,0.977,0.19,1.533
	c0.001,0.599,0.002,1.249,0.24,1.881c-0.239,0.119-0.362,0.307-0.409,0.394c-0.259,0.485-0.057,1.101,0.28,1.391
	c0.243,0.211,0.333,0.341-0.074,1.224l-0.665,1.441l1.5-0.518c0.742-0.255,1.052-0.303,1.21-0.298
	c0.002,0.104-0.016,0.32-0.14,0.718c-0.118,0.379-0.044,0.693,0.098,0.944c-0.205,0.017-0.419,0.07-0.642,0.171l-0.503,0.231
	l0.163,0.709c0.085,0.424,0.265,1.306,1.184,1.401c0.768,0.079,1.439,0.467,2.148,0.879c0.41,0.236,0.833,0.481,1.293,0.677
	c0.391,0.166,0.792,0.318,1.195,0.471c1.408,0.534,2.738,1.036,3.645,2.169c1.218,1.524,2.629,2.636,4.317,3.42
	c-0.047,1.057,0.634,1.731,2.028,2.008c0.981,0.193,1.629,0.799,2.379,1.5c0.28,0.261,0.56,0.523,0.859,0.766
	c0.87,0.706,1.602,1.534,2.376,2.408c0.978,1.105,1.988,2.249,3.312,3.149c1.88,1.281,3.916,2.231,5.885,3.149
	c1.105,0.516,2.249,1.05,3.336,1.631c0.753,0.399,1.789,0.359,2.775-0.111c0.369-0.176,0.735-0.358,1.102-0.537
	c1.326-0.656,2.581-1.275,3.954-1.681c0.818-0.241,1.6-0.597,2.356-0.939c0.909-0.413,1.767-0.802,2.631-0.98
	c2.061-0.424,4.235-0.585,6.338-0.742c1.048-0.077,2.131-0.157,3.196-0.27c2.074-0.217,4.062,0.209,6.165,0.661
	c0.532,0.115,1.064,0.229,1.596,0.331c0.386,0.075,0.782,0.133,1.181,0.19c1.311,0.189,2.549,0.367,3.492,1.184
	c0.907,0.785,1.737,0.619,2.469,0.474l0.263-0.051c0.786-0.145,1.357-0.568,1.86-0.939c0.453-0.337,0.845-0.626,1.359-0.726
	c2.061-0.401,4.398-0.856,6.454-2.018l0.235-0.134c2.408-1.363,4.678-2.656,7.448-2.292c1.745,0.224,2.291-0.812,2.439-1.722
	c0.055-0.337,0.265-0.622,0.373-0.63c0.847-0.059,1.638-0.281,2.402-0.495c0.664-0.185,1.291-0.361,1.912-0.421l0.824-0.079
	c4.112-0.4,8.364-0.81,12.542-0.566c1.721,0.102,3.113,0.434,4.312,1.725c2.05,2.206,3.223,4.753,4.353,7.898
	c0.861,2.397,2.527,3.934,4.571,4.211c1.681,0.229,3.334-0.039,4.931-0.297c1.043-0.17,2.122-0.343,3.167-0.367
	c0.775-0.018,1.488-0.222,2.177-0.419c0.684-0.194,1.345-0.385,1.985-0.368c0.156,0.002,0.316,0.012,0.477,0.023
	c0.63,0.039,1.515,0.093,2.182-0.402c0.139,0.235,0.321,0.432,0.563,0.573c0.461,0.269,1.028,0.272,1.723,0.011
	c0.006,0.015,0.013,0.028,0.019,0.042c0.105,0.213,0.165,0.49,0.228,0.784c0.146,0.679,0.327,1.524,1.208,2.023
	c0.784,0.443,1.849,1.045,3.063,0.904c-0.114,0.981,0.269,1.964,1.123,2.74c0.799,0.725,1.01,1.358,0.778,2.338
	c-0.532,2.245-0.77,4.225-0.727,6.055c0.014,0.585-0.076,0.995-0.288,1.322c-0.266,0.408-0.543,0.807-0.821,1.207
	c-0.383,0.552-0.78,1.124-1.144,1.714l-0.095,0.153c-0.307,0.486-0.726,1.151-0.413,1.806c0.253,0.527,0.842,0.706,1.228,0.775
	c-0.05,0.399,0.013,0.755,0.104,1.077c-0.468,0.01-1.333,0.065-1.538,1.064c-0.149,0.729-0.079,1.388,0.193,1.947l-0.262,0.032v0.6
	c0,0.2,0.005,0.401,0.01,0.602c0.009,0.408,0.017,0.793-0.014,1.167c-0.133,1.561-0.492,2.544-1.063,2.925
	c-0.421,0.279-1.04,0.281-1.894,0.005l-0.62-0.2l-0.225,0.611c-0.304,0.828-0.164,1.672,0.428,2.577
	c0.979,1.502,2.057,3.266,2.624,4.963c0.787,2.36,2.248,4.069,3.661,5.724l0.365,0.429c0.808,0.951,1.78,1.746,2.72,2.516
	c0.814,0.666,1.583,1.294,2.257,2.018c0.999,1.072,1.979,2.162,2.96,3.252c1.293,1.436,2.629,2.92,3.993,4.346
	c0.509,0.533,0.872,1.243,1.255,1.994c0.348,0.682,0.708,1.388,1.209,2.021c0.354,0.446,0.777,1.053,0.914,1.741
	c-0.013,0.051-0.11,0.181-0.168,0.26c-0.186,0.25-0.753,1.013-0.011,1.7c0.716,0.662,0.882,1.525,1.074,2.525
	c0.097,0.498,0.195,1.014,0.373,1.518c0.315,0.9,0.88,1.57,1.426,2.22c0.473,0.562,0.919,1.092,1.14,1.714l0.346,0.984
	c0.957,2.731,1.945,5.558,3.576,8.115c0.161,0.253,0.201,1.002,0.105,1.264c-0.841,0.637-1.939,1.616-2.132,2.948
	c-0.126,0.874,0.138,1.766,0.809,2.717l0.004,0.024c0.417,2.504,1.682,4.677,2.864,6.474c1.069,1.625,1.671,2.981,1.372,4.723
	c-0.027,0.154-0.057,0.311-0.086,0.467c-0.112,0.6-0.229,1.219-0.212,1.859c0.083,3.054-0.486,4.138-3.044,5.797
	c-1.733,1.12-1.704,1.853-1.694,2.094c0.032,0.818-0.387,1.199-1.127,1.799c-0.31,0.25-0.63,0.511-0.9,0.828
	c-0.035,0.034-0.082,0.058-0.125,0.087c-0.226,0.149-0.752,0.494-0.661,1.173c0.084,0.624-0.142,1.245-0.38,1.905
	c-0.216,0.595-0.439,1.211-0.434,1.861c0.018,1.761-0.477,3.382-1,5.102c-0.407,1.334-0.827,2.712-0.985,4.161l-0.01,0.099
	c-0.032,0.302-0.083,0.807-0.283,0.879c-1.714,0.636-1.481,1.91-1.328,2.756c0.025,0.132,0.05,0.271,0.071,0.414
	c0.041,0.281,0.13,0.59,0.216,0.886c0.083,0.294,0.236,0.824,0.211,1.031c-1.513,0.807-0.98,1.917-0.751,2.394l0.058,0.123
	c0.586,1.281,0.434,2.589,0.18,3.815c-0.121,0.58-0.226,1.262-0.088,1.907c0.548,2.558,1.45,5.452,3.975,7.514
	c0.231,0.19,0.43,0.489,0.64,0.803l0.054,0.082c1.673,2.499,3.01,5.26,4.305,7.928c1.011,2.086,2.058,4.241,3.264,6.281
	c0.226,0.378,0.448,0.766,0.67,1.151c0.869,1.51,1.768,3.073,2.952,4.473l0.312,0.366c1.531,1.789,2.855,3.335,1.734,5.688
	c-0.211,0.445-0.102,0.922-0.014,1.308c0.02,0.087,0.04,0.173,0.054,0.258c0.056,0.315,0.126,0.641,0.199,0.968
	c0.209,0.954,0.426,1.941,0.191,2.646c-0.677,2.038,0.157,3.697,0.826,5.031c0.105,0.21,0.209,0.419,0.305,0.624
	c0.549,1.166,1.066,2.267,1.064,3.553c-0.003,2.784,0.676,5.746,1.914,8.345c0.052,0.111,0.052,0.111,0.048,0.152
	c-0.188,2.059,0.715,3.846,1.512,5.423l0.221,0.438c1.693,3.394,4.053,6.197,7.013,8.331c0.063,0.046,0.141,0.137,0.229,0.271
	c1.605,2.436,2.57,5.102,3.591,7.927l0.393,1.081c1.238,3.384,2.754,6.086,4.636,8.259c1.616,1.863,1.85,4.005,1.865,5.854
	c0.004,0.595-0.133,0.773-0.192,0.821c-0.089,0.074-0.289,0.084-0.55,0.031c-0.503-0.104-0.923-0.033-1.247,0.202
	c-0.517,0.381-0.582,1.019-0.635,1.532c-0.01,0.104-0.02,0.204-0.034,0.301c-0.139,0.951,0.398,1.597,0.831,2.117
	c0.469,0.563,0.633,0.816,0.486,1.232c-0.08,0.231-0.049,0.478,0.086,0.675c0.237,0.347,0.647,0.361,0.892,0.368
	c0.035,0.003,0.069,0.003,0.098,0.005c0.307,0.034,0.602,0.277,0.771,0.636c0.125,0.266,0.19,0.65,0.001,0.938
	c-0.845,1.281-0.337,2.476,0.071,3.438c0.144,0.335,0.412,0.773,0.88,0.954c0.306,0.115,0.635,0.099,0.949-0.048
	c0.484-0.227,0.667-0.557,0.734-0.793c0.016-0.055,0.028-0.113,0.035-0.168c0.403,0.679,1.276,0.874,1.736,0.975l0.2,0.046
	c0.286,0.067,0.431,0.268,0.681,0.646c0.215,0.325,0.459,0.694,0.882,0.944c1.33,0.787,2.35,1.188,3.306,1.188
	c1.069,0,2.061-0.501,3.317-1.52c0.416-0.313,3.154-0.884,3.991-0.98c0.417-0.046,0.859-0.034,1.329-0.024
	c1.349,0.031,3.021,0.072,4.251-1.534c0.356-0.467,0.906-0.718,1.782-0.813c0.693-0.075,1.378,0.055,2.102,0.194
	c0.638,0.123,1.281,0.251,2.005,0.241c0.588-0.007,1.068-0.243,1.456-0.431c0.399-0.198,0.637-0.307,0.874-0.241
	c0.575,0.159,1.161,0.268,1.727,0.371c1.09,0.2,2.121,0.39,3.043,0.922c0.573,0.333,1.534,0.446,2.137,0.256
	c0.402-0.125,0.585-0.364,0.668-0.54c0.485-1.04,0.892-1.127,2.283-0.496c0.413,0.188,0.841,0.147,1.217,0.111
	c0.135-0.013,0.266-0.029,0.396-0.021c0.361-0.003,0.658-0.092,0.872-0.299c0.33-0.318,0.334-0.766,0.335-0.915
	c0.004-0.448,0.135-0.81,0.34-0.942c0.173-0.108,0.415-0.041,0.587,0.036c2.59,1.166,4.659-0.005,6.486-1.035l0.508-0.287
	c1.812-0.999,3.461-2.278,5.056-3.516c0.692-0.537,1.386-1.074,2.093-1.59l0.093-0.067c1.804-1.317,3.67-2.678,5.104-4.578
	c0.604-0.802,1.257-1.399,1.995-1.828c3.468-2.011,5.646-5.197,7.753-8.28c0.242-0.354,0.485-0.71,0.73-1.064
	c0.475-0.687,0.884-1.414,1.279-2.119c0.785-1.395,1.525-2.715,2.73-3.709c0.217-0.181,0.428-0.364,0.639-0.544
	c0.76-0.658,1.479-1.279,2.404-1.677c2.038-0.872,3.515-2.837,4.053-5.393c0.273-1.293,0.77-2.572,1.25-3.808
	c0.733-1.891,1.492-3.841,1.547-6.007c0.011-0.46,0.099-0.934,0.19-1.435c0.187-1.01,0.398-2.153,0.012-3.442l-0.298-0.999
	c0.395-0.484,0.957-0.79,1.635-1.158c2.862-1.559,6.059-2.464,9.149-3.341l0.328-0.094c2.078-0.588,3.394-1.994,4.404-3.29
	c0.121-0.154,0.257-0.299,0.391-0.44c0.552-0.59,1.306-1.397,0.947-2.741c-0.554-2.076,0.155-3.974,1.005-5.718
	c0.079-0.163,0.451-1.004-0.044-1.48c-0.48-0.46-0.411-0.807-0.095-1.684c0.079-0.222,0.159-0.443,0.224-0.685
	c0.182-0.667,0.561-2.052-1.168-2.56c-0.012-0.024-0.015-0.077-0.007-0.125c1.515-0.402,1.373-1.619,1.304-2.216
	c-0.021-0.188-0.042-0.364-0.027-0.481c0.006-0.059,0.02-0.121,0.031-0.188c0.188-0.989-0.081-1.572-0.797-1.729
	c-0.622-0.137-0.976,0.128-1.187,0.456c-0.578-0.798-0.847-1.301-0.527-2.168c0.461-1.25,0.005-2.902-0.979-3.53
	c-0.891-0.571-0.869-0.849-0.62-2.064l0.025-0.125c0.251-1.23,0.335-1.646,1.514-2.086c1.473-0.549,2.593-1.984,3.581-3.249
	l0.267-0.342c0.729-0.923,1.53-1.491,1.886-1.505c1.835-0.077,2.65-1.036,3.514-2.05c0.122-0.143,0.247-0.289,0.378-0.438
	l0.392-0.44c2.014-2.281,4.097-4.639,6.85-6.069c0.376-0.195,0.745-0.417,1.115-0.639c0.775-0.465,1.509-0.903,2.268-1.074
	l0.803-0.178c2.194-0.481,4.267-0.935,6.37-2.242c2.138-1.325,3.803-3.027,5.416-4.673l0.465-0.474
	c1.961-1.997,3.989-4.061,4.604-7.105c0.057-0.279,0.172-0.559,0.295-0.854c0.17-0.409,0.361-0.872,0.435-1.424
	c0.182-1.372-0.307-2.49-0.78-3.569c-0.399-0.92-0.779-1.787-0.703-2.745c0.024-0.306,0.072-0.616,0.122-0.93
	c0.102-0.66,0.207-1.342,0.14-2.076c-0.056-0.595-0.145-1.214-0.467-1.804c0.852-0.414,1.026-1.274,1.061-2.117
	c0.054-1.344-0.172-2.646-0.389-3.906c-0.249-1.447-0.484-2.815-0.323-4.222c0.013-0.113,0.021-0.222,0.028-0.32
	c0.004-0.044,0.008-0.092,0.013-0.14c0.016,0.002,0.034,0.002,0.055,0.002l0.093,0.008c0.275,0.026,0.738,0.067,1.084-0.282
	c0.153-0.154,0.326-0.434,0.283-0.9c-0.005-0.051,0.017-0.19,0.031-0.284c0.054-0.347,0.218-1.409-0.861-1.626
	c-0.038-0.007-0.067-0.017-0.09-0.024c0.005-0.053,0.016-0.122,0.024-0.176l0.024-0.178c0.364-3.071-0.208-4.109-2.914-5.284
	c-0.762-0.332-1.112-0.747-1.499-1.78c-0.329-0.871-0.469-1.794-0.616-2.77c-0.223-1.472-0.453-2.991-1.364-4.407
	c-0.801-1.242-0.856-2.271-0.176-3.234c0.59-0.836,0.462-2.449-0.038-3.232c-0.637-0.992-0.305-1.584,0.551-2.609
	c0.583-0.7,0.778-1.56,0.522-2.302c-0.225-0.651-0.773-1.115-1.505-1.271c-0.117-0.025-0.143-0.031-0.205-0.413
	c-0.185-1.104-0.997-1.799-1.695-2.083c-0.677-0.274-0.796-0.435-0.799-1.067c-0.001-0.295-0.047-0.571-0.086-0.817
	c-0.082-0.497-0.121-0.795,0.054-1.132l0.32-0.614c0.697-1.335,1.42-2.716,1.78-4.202c0.295-1.217,0.616-2.291,1.565-3.106
	c0.641-0.55,1.005-1.253,1.358-1.934l0.163-0.316c0.443-0.834,0.805-1.704,1.152-2.546c0.4-0.967,0.778-1.881,1.266-2.73
	l0.082-0.145c0.84-1.457,1.632-2.834,1.504-4.73c-0.022-0.331,0.387-0.592,0.803-0.677c2.677-0.552,3.296-1.165,3.676-3.65
	c0.021-0.134,0.047-0.217,0.067-0.265c2.024,0.408,3.01-0.93,3.733-1.911c0.18-0.246,0.358-0.49,0.553-0.708
	c0.776-0.872,1.358-1.87,1.919-2.837c0.352-0.604,0.685-1.177,1.061-1.716c0.794-1.144,1.847-2.192,2.864-3.205
	c0.412-0.409,0.822-0.818,1.22-1.235c0.701-0.735,1.393-1.479,2.083-2.223c2.02-2.171,4.108-4.416,6.397-6.384l0.419-0.361
	c2.286-1.967,4.444-3.827,7.031-5.233l0.518-0.28c1.829-0.989,3.72-2.01,5.257-3.621c0.586-0.617,1.175-1.229,1.765-1.842
	c4.483-4.663,9.12-9.486,12.402-15.365c0.47-0.84,0.991-1.68,1.495-2.489c1.498-2.406,3.047-4.894,3.562-7.925
	c0.352-2.065,1.575-3.797,2.727-5.219c0.684-0.845,0.919-1.808,1.145-2.736c0.261-1.068,0.508-2.077,1.441-2.862
	c1.053-0.886,1.514-2.213,1.958-3.495c0.335-0.961,0.68-1.956,1.268-2.746c1.309-1.761,1.314-3.885,1.319-5.941
	c0.003-0.656,0.004-1.276,0.047-1.881c0.036-0.503,0.091-0.525,0.511-0.691c0.057-0.021,0.236-0.015,0.354-0.01
	c0.174,0.01,0.35,0.013,0.514-0.005c0.037-0.004,0.077,0.004,0.118,0.007c0.231,0.018,0.615,0.051,0.94-0.231
	c0.214-0.183,0.335-0.448,0.357-0.785l0.01-0.108C468.062,188.573,468.105,188.121,467.784,187.761z M392.939,205.278
	L392.939,205.278L392.939,205.278L392.939,205.278z M384.167,160.053L384.167,160.053L384.167,160.053L384.167,160.053z
	 M354.432,321.875C354.432,321.875,354.432,321.875,354.432,321.875L354.432,321.875
	C354.432,321.875,354.432,321.875,354.432,321.875z M351.771,320.957L351.771,320.957L351.771,320.957L351.771,320.957z
	 M330.843,261.187L330.843,261.187L330.843,261.187L330.843,261.187L330.843,261.187z M331.713,378.19L331.713,378.19
	L331.713,378.19L331.713,378.19z M345.033,71.438L345.033,71.438c0,0,0,0,0,0.001l0,0C345.033,71.438,345.033,71.438,345.033,71.438
	z M344.161,71.918c0.029,0.445,0.092,0.951,0.248,1.469c-0.032-0.029-0.066-0.056-0.102-0.082c-0.024-0.36-0.111-0.821-0.575-1.196
	c-0.56-0.454-0.866-0.933-0.949-1.509c0.044,0.026,0.09,0.052,0.137,0.075L344.161,71.918z M342.881,275.053L342.881,275.053
	L342.881,275.053L342.881,275.053z M342.308,68.101L342.308,68.101L342.308,68.101L342.308,68.101L342.308,68.101z M336.977,115.795
	L336.977,115.795L336.977,115.795L336.977,115.795z M339.105,284.588L339.105,284.588L339.105,284.588L339.105,284.588
	L339.105,284.588z M341.812,111.531L341.812,111.531L341.812,111.531L341.812,111.531L341.812,111.531z M301.335,408.481
	L301.335,408.481L301.335,408.481L301.335,408.481z M291.296,260.261L291.296,260.261L291.296,260.261L291.296,260.261z
	 M254.375,342.465L254.375,342.465L254.375,342.465L254.375,342.465z M242.597,247.831c-0.001-0.001-0.001-0.003-0.002-0.003l0,0
	C242.596,247.827,242.596,247.83,242.597,247.831z M241.087,344.651L241.087,344.651L241.087,344.651L241.087,344.651z
	 M221.024,297.44L221.024,297.44L221.024,297.44L221.024,297.44z M210.118,101.249L210.118,101.249L210.118,101.249L210.118,101.249
	C210.118,101.249,210.118,101.249,210.118,101.249z M198.97,44.835L198.97,44.835L198.97,44.835L198.97,44.835z M205.234,51.406
	C205.234,51.407,205.234,51.407,205.234,51.406L205.234,51.406C205.234,51.407,205.234,51.407,205.234,51.406z M201.086,46.07
	L201.086,46.07L201.086,46.07L201.086,46.07L201.086,46.07z M200.055,36.738L200.055,36.738L200.055,36.738L200.055,36.738z
	 M200.028,45.061L200.028,45.061L200.028,45.061L200.028,45.061z M203.239,23.37C203.239,23.37,203.239,23.37,203.239,23.37
	L203.239,23.37L203.239,23.37z M203.844,50.474c0.002-0.001,0.003-0.002,0.005-0.005v0.001
	C203.847,50.471,203.846,50.472,203.844,50.474L203.844,50.474z M201.253,36.151L201.253,36.151L201.253,36.151L201.253,36.151z
	 M201.725,35.872L201.725,35.872L201.725,35.872L201.725,35.872L201.725,35.872z M203.334,50.056L203.334,50.056
	c0.05,0.025,0.103,0.044,0.16,0.06C203.438,50.1,203.384,50.081,203.334,50.056z M188.26,126.665L188.26,126.665L188.26,126.665
	L188.26,126.665z M191.15,123.775L191.15,123.775L191.15,123.775L191.15,123.775L191.15,123.775z M180.868,205.177L180.868,205.177
	L180.868,205.177L180.868,205.177z M181.467,132.32L181.467,132.32L181.467,132.32L181.467,132.32z M180.866,198.861
	L180.866,198.861C180.866,198.86,180.866,198.86,180.866,198.861C180.866,198.86,180.866,198.86,180.866,198.861z M163.626,32.098
	L163.626,32.098L163.626,32.098L163.626,32.098z M163.409,32.351L163.409,32.351L163.409,32.351L163.409,32.351z M162.342,129.05
	C162.342,129.05,162.342,129.05,162.342,129.05L162.342,129.05C162.342,129.05,162.342,129.05,162.342,129.05z M161.023,128.785
	L161.023,128.785c-0.001,0-0.003,0-0.005,0C161.02,128.785,161.022,128.785,161.023,128.785z M148.103,203.058
	c-0.002-0.005-0.005-0.01-0.007-0.015l0,0C148.098,203.048,148.1,203.053,148.103,203.058z M143.979,28.991L143.979,28.991
	L143.979,28.991L143.979,28.991L143.979,28.991z M150.019,160.257L150.019,160.257C150.019,160.258,150.019,160.258,150.019,160.257
	L150.019,160.257C150.019,160.258,150.019,160.258,150.019,160.257z M151.026,159.335L151.026,159.335L151.026,159.335
	L151.026,159.335z M150.027,160.125L150.027,160.125L150.027,160.125L150.027,160.125z M149.724,160.438L149.724,160.438
	L149.724,160.438L149.724,160.438z M145.627,39.655L145.627,39.655L145.627,39.655L145.627,39.655z M146.585,47.767L146.585,47.767
	L146.585,47.767L146.585,47.767z M129.698,55.526L129.698,55.526L129.698,55.526L129.698,55.526z M128.526,55.871L128.526,55.871
	L128.526,55.871L128.526,55.871z M128.29,165.414C128.29,165.414,128.29,165.414,128.29,165.414L128.29,165.414
	C128.29,165.414,128.29,165.414,128.29,165.414z M127.628,165.692L127.628,165.692L127.628,165.692L127.628,165.692L127.628,165.692
	z M125.875,173.918L125.875,173.918c0,0,0,0,0-0.001C125.875,173.918,125.875,173.918,125.875,173.918z M125.831,174.451
	L125.831,174.451L125.831,174.451L125.831,174.451z M116.146,147.809c-0.003-0.002-0.005-0.005-0.008-0.007l0,0
	C116.141,147.804,116.143,147.807,116.146,147.809z M114.91,172.042L114.91,172.042L114.91,172.042L114.91,172.042L114.91,172.042z
	 M120.213,61.244c0.001,0,0.003,0,0.004,0l0,0C120.216,61.244,120.214,61.244,120.213,61.244z M117.52,32.447L117.52,32.447
	c-0.008-0.007-0.016-0.015-0.024-0.022l0,0C117.503,32.432,117.512,32.439,117.52,32.447z M107.043,185.657L107.043,185.657
	L107.043,185.657L107.043,185.657z M99.523,77.586L99.523,77.586L99.523,77.586L99.523,77.586z M100.614,67.321L100.614,67.321
	v0.001V67.321z M95.611,221.499L95.611,221.499L95.611,221.499L95.611,221.499z M97.258,126.928
	C97.257,126.928,97.257,126.928,97.258,126.928C97.257,126.928,97.257,126.928,97.258,126.928L97.258,126.928z M78.584,126.909
	L78.584,126.909L78.584,126.909L78.584,126.909z M76.311,91.267L76.311,91.267L76.311,91.267L76.311,91.267z M75.898,91.27
	L75.898,91.27L75.898,91.27L75.898,91.27L75.898,91.27z M64.493,158.447L64.493,158.447L64.493,158.447L64.493,158.447z
	 M66.522,184.101L66.522,184.101L66.522,184.101L66.522,184.101z M64.993,159.044c0.001,0,0.002,0,0.003,0l0,0
	C64.995,159.044,64.994,159.044,64.993,159.044L64.993,159.044z M59.244,151.181L59.244,151.181
	c0.004,0.002,0.005,0.005,0.008,0.007l0,0C59.249,151.186,59.248,151.183,59.244,151.181z M59.582,151.572L59.582,151.572
	L59.582,151.572L59.582,151.572z M54.4,146.942L54.4,146.942L54.4,146.942L54.4,146.942L54.4,146.942z M41.101,147.846
	L41.101,147.846L41.101,147.846L41.101,147.846L41.101,147.846z M41.235,142.638l0.136,0.301l-0.281-0.123
	C41.137,142.706,41.212,142.65,41.235,142.638z"/>
</svg>
