<?xml version="1.0" encoding="utf-8"?>
<!-- Generator: Adobe Illustrator 16.0.0, SVG Export Plug-In . SVG Version: 6.00 Build 0)  -->
<!DOCTYPE svg PUBLIC "-//W3C//DTD SVG 1.1//EN" "http://www.w3.org/Graphics/SVG/1.1/DTD/svg11.dtd">
<svg version="1.1" id="Layer_1" xmlns="http://www.w3.org/2000/svg" xmlns:xlink="http://www.w3.org/1999/xlink" x="0px" y="0px"
	 width="300px" height="300px" viewBox="0 0 300 300" enable-background="new 0 0 300 300" xml:space="preserve">
<path fill="#FFFFFF" d="M149,11C71.676,11,9,73.676,9,151c0,77.314,62.676,140,140,140c77.324,0,140-62.686,140-140
	C289,73.676,226.324,11,149,11z M225.476,104.406c-0.674,1.12-4.122,5.058-7.797,8.663c-6.229,6.187-6.562,6.86-6.562,12.04
	c0,7.989-3.78,24.649-7.568,33.758c-7.018,17.115-22.042,34.79-37.074,43.68c-21.148,12.486-49.315,15.646-73.027,8.33
	c-7.893-2.485-21.481-8.785-21.481-9.905c0-0.341,4.121-0.787,9.135-0.9c10.465-0.211,20.93-3.133,29.837-8.321l6.011-3.605
	l-6.904-2.362c-9.8-3.378-18.594-11.147-20.816-18.463c-0.674-2.371-0.446-2.484,5.784-2.484l6.466-0.097l-5.46-2.59
	c-6.458-3.272-12.355-8.776-15.251-14.412c-2.118-4.06-4.787-14.297-4.008-15.085c0.219-0.341,2.564,0.333,5.232,1.234
	c7.674,2.809,8.68,2.135,4.227-2.59c-8.348-8.558-10.911-21.28-6.904-33.32l1.881-5.399l7.35,7.315
	c15.032,14.744,32.733,23.52,52.99,26.11l5.565,0.674l-0.333-5.513c-0.997-14.289,7.797-27.344,21.709-32.41
	c5.128-1.802,13.808-2.03,19.495-0.455c2.231,0.673,6.448,2.931,9.459,4.952l5.451,3.728l6.011-1.916
	c3.343-1.006,7.797-2.695,9.801-3.824c1.89-1.006,3.561-1.566,3.561-1.234c0,1.908-4.121,8.435-7.568,12.04
	c-4.682,5.066-3.343,5.513,6.116,2.135C226.473,102.262,226.595,102.262,225.476,104.406z"/>
</svg>
