<?xml version="1.0" encoding="utf-8"?>
<!-- Generator: Adobe Illustrator 16.0.0, SVG Export Plug-In . SVG Version: 6.00 Build 0)  -->
<!DOCTYPE svg PUBLIC "-//W3C//DTD SVG 1.1//EN" "http://www.w3.org/Graphics/SVG/1.1/DTD/svg11.dtd">
<svg version="1.1" id="Layer_1" xmlns="http://www.w3.org/2000/svg" xmlns:xlink="http://www.w3.org/1999/xlink" x="0px" y="0px"
	 width="229px" height="300px" viewBox="0 0 229 300" enable-background="new 0 0 229 300" xml:space="preserve">
<g>
	
		<linearGradient id="PERA_1_" gradientUnits="userSpaceOnUse" x1="4825.2324" y1="783.125" x2="4977.1108" y2="676.7786" gradientTransform="matrix(-0.8715 -0.4903 0.4903 -0.8715 4015.1931 3204.3271)">
		<stop  offset="0" style="stop-color:#CCCD33"/>
		<stop  offset="0.1285" style="stop-color:#89C933"/>
		<stop  offset="0.2351" style="stop-color:#85C633"/>
		<stop  offset="0.3437" style="stop-color:#79BD31"/>
		<stop  offset="0.4534" style="stop-color:#64AD2F"/>
		<stop  offset="0.5632" style="stop-color:#48982C"/>
		<stop  offset="0.6016" style="stop-color:#3C8F2B"/>
		<stop  offset="0.6453" style="stop-color:#3C8F2B"/>
		<stop  offset="0.9861" style="stop-color:#3C8F2B"/>
	</linearGradient>
	<path id="PERA_9_" fill="url(#PERA_1_)" d="M109.521,61.032c1.739,7.421,92.886,40.188,86.564,135.52
		c-4.99,78.078-51.237,94.271-102.474,93.485c-51.226-0.765-81.81-58.774-81.7-94.561c0.1-32.968,7.48-50.547,7.48-50.547
		s2.219-6.183,3.943-9.594c1.044-2.087,4.691-5.492,6.426-5.893c62.944-14.565,48.87,18.544,48.87,18.544
		c-39.977,74.499-19.008,122.098,18.118,121.609c39.504-0.49,78.399-28.978,74.836-68.248
		c-9.294-102.121-48.833-78.716-96.718-120.501C56.529,64.833,65,44.242,90.766,40.848C92.884,40.553,104.144,38.118,109.521,61.032
		z M180.256,209.261c-0.158-0.48,0.132-1.118-0.041-1.593c-0.228-2.093-2.347-3.506-1.65-5.898c1.581-4.333,1.212-8.24-0.106-11.829
		c-0.796-2.145-1.591-4.301-0.02-7.284c2.019-3.12,1.508-5.92,0.168-8.139c-1.524-2.694-2.958-5.15-1.667-8.851
		c0.598-1.282-0.315-2.299-0.758-3.491c-1.396-3.842-2.804-7.652-2.811-11.976c-0.432-1.191-0.315-2.288-1.132-3.094
		c-0.822-0.807-2.109-1.418-3.676-1.413c-1.965,0.412-2.613,0.105-2.878-0.622c-0.432-1.165-0.869-2.377-2.154-3.004
		c-0.632-0.316-1.287-0.634-1.931-0.939c-1.118-0.163-1.297-2.957-2.229-2.636l-1.05-2.083c-0.473,0.143-1.013-1.048-1.968-0.711
		c-0.367,0.401,1.057,2.478,0.282,3.294c0.178,0.48,0.727,1.281,1.19,1.113c0.089,0.247,0.22,1.464,0.22,1.464
		c0.55,0.059,0.629,0.902,1.118,0.976c0.839,0.147,0.201,0.706,0.201,0.706c1.271,0.77,2.362-0.285,1.219,2.271
		c-0.387,0.396-0.387,0.396,0.079,0.249c1.791-0.892,2.897-0.738,3.625-0.206c0.643,0.327,0.917,1.028,1.55,1.365
		c0.18,0.464,0.264,0.706,0.444,1.181l0.643,0.317l0.262,0.711l1.599,2.941l1.612,2.947l1.229,3.347
		c1.296,4.929,2.661,10.133,3.093,15.624c0.564,8.704,2.041,17.068,0.258,26.609c-0.822,3.501,1.72,6.126,2.39,9.373
		c0.101,0.253,0.174,0.506,1.586,0C179.987,209.894,180.256,209.261,180.256,209.261z M184.109,156.415
		c-1.369-5.159-4.507-9.451-9.941-12.683l0.78,2.156c0.29,0.707,0.538,1.439,0.801,2.136c0.338,0.965,0.517,1.439,1.73,1.833
		c1.755,0.476,2.561,1.261,1.043,2.858c-0.843,0.579-0.21,0.892-0.126,1.118c2.013,5.519,3.5,10.905,4.574,16.727
		c0.549,4.39,0.549,8.707,0.17,13.431c0.084,0.253-0.217,0.875,0.252,0.737c2.609-0.116,0.991,1.26,0.717,1.876
		c-0.221,0.896-0.495,1.539-0.79,2.166c-0.527,2.874,1.291,4.956,2.149,7.334c-0.278,0.647-0.578,1.291,1.393,0.875
		c0.922-0.338,0.173,0.479-0.3,0.652c-1.872,0.644-1.704,1.112-1.515,1.599c-0.646,4.011-0.748,8.069-0.437,11.744
		c0.711,4.859,0.976,9.898,3.12,14.269c0.334,0.961,0.133,1.841,0.86,2.383c1.997-1.755,1.855-3.601,0.858-4.876
		c-0.084-0.225-0.737-0.542-0.811-0.795c0.284-0.633,0.567-1.271,0.88-1.921c1.237-2.334-3.843-3.245-2.199-5.96
		c0.29-0.639,1.52-1.625,1.333-2.093c0.307-0.639-0.336-0.949-0.536-1.434c-1.625-1.582,0.115-4.085,1.835-6.559
		c-0.385,0.375-1.887,0.654-2.427,0.56c-0.643-0.302-0.737-0.554-0.348-0.949c-0.062-1.598,0.36-3.358,0.286-4.97
		c-0.085-0.217-0.17-0.47,0.21-0.87c0.464-0.138,0.928-0.322,1.312-0.708c0.464-0.184,0.296-0.652-0.269-0.726
		c-0.718-0.561-2.393-0.781-2.657-1.497c-0.812-0.786,0.802-2.178,3.132-2.975c0.464-0.168,0.938-0.337,1.392-0.49
		c1.412-0.51,1.243-0.969,0.147-1.132c-1.033,0.078-2.445,0.584-3.858,1.075l2.457-6.242c0.38-0.416,0.22-0.9,0.126-1.122
		c-0.644-0.317-1.271-0.638-1.476-1.107c-0.159-0.475,1.159-1.218,2.165-1.292c0.563,0.063-0.046-1.607-0.131-1.844
		c-1.192-0.392-3.543,0.433-2.477-1.007c1.422-1.866-0.033-2.962-0.939-4.013c-0.643-0.3-0.833-0.77-0.526-1.423
		c1.371-3.452,0.399-6.067,0.468-8.786C186.978,161.354,184.61,159.221,184.109,156.415z M37.673,214.368
		c-0.759,0.285-1.677,0.185-2.193-0.047c-0.506-0.242-0.263-0.765-0.263-0.765c-0.185-1.645,0.179-3.042,0.521-4.444
		c-0.136-0.389-0.136-0.389,0.248-0.526c0.243-0.501,0.775-0.248,1.018-0.766c0.374-0.136,0.236-0.521-0.143-0.369
		c-0.674-0.632-1.845-1.475-2.509-2.107c-0.284-0.77,0.98-2.046,3.189-1.978c0.385-0.12,0.77-0.269,1.291-0.025
		c0.77-0.29,0.87-1.171-0.042-1.276c-0.907-0.085-2.193-0.063-3.354,0.344l2.077-5.004c0.243-0.495,0.49-1.006,0.358-1.386
		c-0.527-0.254-1.064-0.475-1.19-0.864c-0.147-0.374,1.275-1.286,1.929-0.67c0.375-0.138,0.201-1.786-0.316-2.034
		c-0.653-0.622-2.72-0.312-1.845-1.466c1.255-1.302-0.069-2.53-0.479-3.674c-0.533-0.231-0.796-0.985-0.411-1.123
		c1.081-2.931,1.022-5.472,1.333-8.144c0.854-2.42-1.027-5.166-0.706-7.833c0.395-4.834-0.75-9.109-2.552-13.996
		c-0.211,1.781-0.559,3.178-1.302,4.718c-0.1,0.896-0.353,1.377,0.695,1.877c1.187,0.875,1.218,2.146-0.173,3.047
		c-0.78,0.279-0.643,0.659-0.511,1.023l0.817,16.34c0.089,3.774-0.211,7.723-0.749,12.161c0,0-0.242,0.501,0.296,0.774
		c2.192,0.059,0.791,0.981,0.548,1.492c-0.632,0.638-0.738,1.523-0.596,1.903c-0.849,2.437,0.764,4.412,1.202,6.816
		c0.142,0.379-0.105,0.9,1.312,1.232c0.78-0.269,0.538,0.242,0.143,0.38c-2.046,0.289-1.535,0.559-1.777,1.059
		c-0.432,3.56-0.865,7.117-0.522,10.411c0.379,4.528-0.026,9.36,1.645,13.873c0.285,0.771,0.174,1.655,1.075,1.758
		c1.787-1.061,1.228-2.562,0.669-4.062c-0.506-0.261-0.653-0.632-0.791-1.006c0.249-0.511,0.633-0.647,0.875-1.148
		c0.98-2.056-2.683-3.732-1.697-5.804c0.643-0.628,1.259-1.301,1.508-1.809c0.237-0.496-0.411-1.123-0.548-1.502
		C34.663,218.001,36.166,216.192,37.673,214.368z M49.471,228.443c-0.733,0.356-1.645,0.326-2.183,0.132
		c-0.543-0.196-0.343-0.717-0.343-0.717c-0.327-1.624-0.1-3.068,0.111-4.488c-0.164-0.367-0.164-0.367,0.2-0.531
		c0.199-0.537,0.743-0.332,0.948-0.866c0.358-0.166,0.179-0.52-0.179-0.373c-0.728-0.548-1.977-1.296-2.698-1.85
		c-0.349-0.743,0.79-2.118,2.983-2.256c0.378-0.17,0.754-0.326,1.291-0.143c0.744-0.343,0.764-1.233-0.158-1.265
		c-0.901-0.016-2.188,0.137-3.295,0.636l1.592-5.153c0.201-0.532,0.4-1.055,0.221-1.418c-0.537-0.2-1.085-0.396-1.254-0.765
		c-0.185-0.358,1.144-1.393,1.855-0.828c0.358-0.168,0.048-1.786-0.496-1.997c-0.706-0.554-2.751-0.085-1.971-1.291
		c1.128-1.408-0.307-2.526-0.817-3.632c-0.553-0.19-0.886-0.887-0.522-1.082c0.812-3.02,0.522-5.535,0.585-8.229
		c0.617-2.482-1.492-5.022-1.429-7.743c-0.053-4.822-1.576-8.992-3.832-13.706c-0.047,1.782-0.259,3.238-0.865,4.824
		c-0.01,0.881-0.216,1.424,0.869,1.812c1.271,0.743,1.413,2.004,0.111,3.037c-0.759,0.332-0.568,0.702-0.405,1.064l2.303,16.188
		c0.438,3.774,0.512,7.733,0.391,12.177c0,0-0.19,0.538,0.347,0.737c2.193-0.126,0.896,0.924,0.701,1.444
		c-0.584,0.713-0.602,1.614-0.427,1.961c-0.622,2.503,1.154,4.334,1.824,6.679c0.174,0.374-0.016,0.902,1.439,1.123
		c0.738-0.342,0.538,0.195,0.175,0.359c-2.02,0.479-1.492,0.689-1.682,1.223c-0.106,3.564-0.206,7.147,0.437,10.384
		c0.796,4.507,0.838,9.342,2.925,13.695c0.337,0.723,0.317,1.63,1.233,1.634c1.676-1.191,0.991-2.641,0.285-4.091
		c-0.538-0.194-0.707-0.569-0.885-0.929c0.2-0.541,0.574-0.699,0.774-1.236c0.775-2.131-3.015-3.485-2.229-5.604
		c0.575-0.702,1.14-1.402,1.329-1.945c0.189-0.521-0.506-1.092-0.685-1.454C46.824,232.327,48.142,230.387,49.471,228.443z
		 M164.373,260.607c-5.26,2.621-9.487,6.726-13.515,10.479c-0.196,0.37-0.379,0.706-0.237,1.271c0.157,0.536,0.87,0.933,1.418,0.778
		c1.634,0.428,3.269,0.866,2.629-1.312c-0.143-0.558-0.099-1.428,0.972-0.854c1.058,0.602,0.311,1.086,0.463,1.635
		c0,0-0.195,0.348-0.037,0.884c1.154-1.188,2.098-2.055,2.857-2.549c0.21-0.344,0.764-0.513,0.601-1.045
		c-2.286-1.74-0.465-1.623,0.096-1.786c0.748-0.512,0.653-1.936,1.918-1.698c1.255,0.222,1.455-0.133,1.497-1.013
		c-0.253-1.997,0.537-3.384,2.556-3.652c1.118-0.306,0.976-0.849,0.292-2.13C165.334,259.77,164.932,260.454,164.373,260.607z"/>
	<linearGradient id="TALLO_1_" gradientUnits="userSpaceOnUse" x1="84.9575" y1="42.5698" x2="214.0859" y2="42.5698">
		<stop  offset="0.2421" style="stop-color:#294B9F"/>
		<stop  offset="1" style="stop-color:#507AB7"/>
	</linearGradient>
	<path id="TALLO_9_" fill="url(#TALLO_1_)" d="M92.179,40.848c2.108,0.016-7.221-24.143-7.221-24.143
		c42.803-6.705,22.433,25.803,22.433,25.803c54.77,41.006,26.52-29.161,89.021-23.562c9.975,0.901,5.904-8.608,10.87-8.945
		c0,0,27.201,36.82-27.173,61.742c-29.399,13.521-68.759-18.154-70.705-11.159c0,0,0.117-0.4-1.049-3.522
		c-1.239-3.384-3.126-8.866-5.962-12.002C98.625,40.895,92.179,40.848,92.179,40.848z"/>
</g>
</svg>
