<?xml version="1.0" encoding="utf-8"?>
<!-- Generator: Adobe Illustrator 16.0.0, SVG Export Plug-In . SVG Version: 6.00 Build 0)  -->
<!DOCTYPE svg PUBLIC "-//W3C//DTD SVG 1.1//EN" "http://www.w3.org/Graphics/SVG/1.1/DTD/svg11.dtd">
<svg version="1.1" id="Layer_1" xmlns="http://www.w3.org/2000/svg" xmlns:xlink="http://www.w3.org/1999/xlink" x="0px" y="0px"
	 width="1628.615px" height="1454.633px" viewBox="0 0 1628.615 1454.633" enable-background="new 0 0 1628.615 1454.633"
	 xml:space="preserve">
<g id="Group_247" transform="translate(164.544 284.018)" opacity="0.1">
	<path id="Path_222" fill="#EC4A70" d="M848.285,635.183c101.176-171.758,295.228-125.208,424.22-34.804
		c128.992,90.409,171.671,263.137,84.137,391.084c-87.53,127.954-362.205,155.342-491.201,64.935
		C736.448,965.99,747.107,806.933,848.285,635.183z"/>
	<path id="Path_180" fill="#2F9A3D" d="M-163.741-191.712c39.83,5.103,80.161,23.449,113.277,46.66
		C26.194-91.327,51.555,11.319-0.463,87.359c-29.855,43.65-96.357,67.603-162.184,69.935
		C-165.918,156.673-164.026-192.098-163.741-191.712z"/>
	<path id="Path_203" fill="#FFC43F" d="M1206.904-284.018c80.953,198.607,33.055,416.545-126.622,493.674
		C913.951,290,592.718,108.788,497.266-95.912c-30.449-65.3-28.756-129.235-22.717-188.106
		C475.335-285.465,1206.907-282.521,1206.904-284.018z"/>
</g>
</svg>
