<?xml version="1.0" encoding="utf-8"?>
<!-- Generator: Adobe Illustrator 16.0.0, SVG Export Plug-In . SVG Version: 6.00 Build 0)  -->
<!DOCTYPE svg PUBLIC "-//W3C//DTD SVG 1.1//EN" "http://www.w3.org/Graphics/SVG/1.1/DTD/svg11.dtd">
<svg version="1.1" id="Layer_1" xmlns="http://www.w3.org/2000/svg" xmlns:xlink="http://www.w3.org/1999/xlink" x="0px" y="0px"
	 width="831.5px" height="1074.5px" viewBox="-39.5 0 831.5 1074.5" enable-background="new -39.5 0 831.5 1074.5"
	 xml:space="preserve">
<g id="Group_210" transform="translate(-644.813 507.007)">
	<path id="Path_186" opacity="0.1" fill="#49A640" d="M1437.672,501.976c-110.982,31.939-291.655-88.719-341.554-191.029
		c-52.748-108.146,50.199-238.203,158.348-290.952c57.538-28.144,124.56-29.477,183.172-3.64
		C1436.736,16.021,1436.699,502.181,1437.672,501.976z"/>
	<path id="Path_187" opacity="0.1" fill="#378DE3" d="M1437.601-506.892c0.522,0.196-0.096,152.894,0,155.121
		c-1.284,2.3-2.523,4.484-3.774,6.652c-104.248,180.562-338.333,240.573-522.847,134.043
		c-94.103-54.33-182.718-170.403-233.165-295.123C677.419-507.502,1438.166-506.819,1437.601-506.892z"/>
	<path id="Path_189" opacity="0.1" fill="#EC4A70" d="M738.258,199.58c-60.45-52.549-33.346-207.875,19.203-268.324
		c52.549-60.452,159.021-31.199,219.475,21.352c60.454,52.552,66.855,144.152,14.306,204.602
		C938.692,217.661,798.708,252.129,738.258,199.58z"/>
	<path id="Path_188" opacity="0.1" fill="#FCBA23" d="M1437.299-42.346c-0.344-0.005-0.751-0.01-1.161-0.017
		c-51.017-0.891-91.651-42.969-90.761-93.985c0-0.001,0-0.002,0-0.003c0.809-46.322,45.564-111.708,92.075-122.702
		C1437.446-258.662,1438.048-42.536,1437.299-42.346z"/>
	<g id="Group_108" transform="translate(1262.893 236.599)" opacity="0.3">
		<g id="Group_107" transform="translate(-142 -236.099)">
			<g id="Group_106" transform="translate(-0.001 0.002)">
				<path id="Path_108" fill="#FFFFFF" d="M21.465-414.604c0.029,0.037,0.053,0.069,0.082,0.108
					C21.518-414.535,21.494-414.567,21.465-414.604 M13.871-423.747c-0.271-0.257-0.541-0.508-0.815-0.725
					C13.34-424.244,13.612-424.003,13.871-423.747 M16.782-421.119c0.502,0.564,0.912,1.326,1.391,1.925
					c-0.933-1.145-1.869-2.251-2.815-3.212C15.832-421.969,16.338-421.608,16.782-421.119 M147.921-200.844
					c2.313-0.813,3.629,2.088,4.77,1.724l2.559,5.063c2.259-0.779,2.696,6.024,5.425,6.419c1.553,0.744,3.138,1.51,4.691,2.271
					c3.126,1.521,4.18,4.463,5.231,7.311c0.644,1.761,2.215,2.52,6.991,1.501c3.312-0.066,6.52,1.166,8.937,3.433
					c1.979,1.958,1.694,4.625,2.748,7.529c0.019,10.486,3.438,19.775,6.831,29.098c1.072,2.903,3.292,5.369,1.842,8.486
					c-3.138,8.983,0.344,14.972,4.046,21.502c3.255,5.406,4.501,12.21-0.41,19.792c-3.808,7.236-1.876,12.479,0.057,17.705
					c3.191,8.709,4.094,18.216,0.255,28.736c-1.68,5.825,3.454,9.253,4.006,14.312c0.427,1.164-0.279,2.724,0.11,3.883
					c0,0-0.662,1.544-3.166,1.762c-3.429,1.234-3.612,0.596-3.862,0c-1.626-7.89-7.802-14.278-5.805-22.786
					c4.344-23.166,0.74-43.505-0.618-64.657c-1.054-13.351-4.382-25.997-7.529-37.972l-2.982-8.141l-3.92-7.15l-3.883-7.145
					l-0.634-1.723l-1.561-0.784c-0.436-1.139-0.65-1.74-1.088-2.884c-1.535-0.8-2.188-2.5-3.766-3.302
					c-1.76-1.307-4.451-1.668-8.809,0.508c-1.134,0.365-1.134,0.365-0.189-0.599c2.785-6.222,0.131-3.641-2.965-5.535
					c0,0,1.552-1.36-0.49-1.703c-1.182-0.182-1.371-2.23-2.705-2.376c-0.114-1.194-0.293-2.384-0.536-3.56
					c-1.122,0.404-2.469-1.541-2.891-2.716C150.486-194.818,147.03-199.862,147.921-200.844 M215.36-150.497
					c1.226,6.821,6.978,12.01,5.917,19.575c-0.165,6.619,2.183,12.969-1.146,21.368c-0.735,1.581-0.272,2.72,1.28,3.445
					c2.202,2.559,5.748,5.228,2.275,9.745c-2.58,3.498,3.12,1.505,6.028,2.448c0.209,0.599,1.698,4.644,0.318,4.479
					c-2.45,0.182-5.648,1.998-5.252,3.141c0.483,1.141,2.014,1.924,3.573,2.703c0.47,0.882,0.349,1.963-0.305,2.719l-5.956,15.172
					c3.425-1.198,6.863-2.412,9.36-2.614c2.664,0.396,3.083,1.503-0.355,2.756c-1.104,0.362-2.247,0.781-3.372,1.198
					c-5.669,1.942-9.589,5.299-7.618,7.223c0.644,1.725,4.714,2.284,6.466,3.626c1.359,0.184,1.778,1.324,0.642,1.757
					c-0.891,0.853-1.992,1.453-3.19,1.741c-0.926,0.982-0.708,1.581-0.5,2.126c0.165,3.901-0.852,8.18-0.696,12.062
					c-0.952,0.962-0.714,1.561,0.841,2.323c1.319,0.196,4.955-0.454,5.888-1.377c-4.169,6.02-8.392,12.079-4.444,15.925
					c0.481,1.183,2.048,1.94,1.308,3.503c0.436,1.124-2.533,3.521-3.25,5.081c-4,6.602,8.354,8.816,5.344,14.477
					c-0.753,1.597-1.452,3.136-2.15,4.664c0.189,0.635,1.777,1.396,1.988,1.959c2.409,3.08,2.756,7.563-2.089,11.824
					c-1.769-1.304-1.276-3.447-2.097-5.784c-5.204-10.631-5.841-22.858-7.582-34.684c-0.788-9.521-0.431-19.103,1.061-28.537
					c-0.46-1.164-0.861-2.305,3.672-3.883c1.154-0.436,2.979-2.415,0.737-1.581c-4.789,1.015-4.054-0.543-3.374-2.121
					c-2.096-5.786-6.513-10.833-5.236-17.817c0.825-1.686,1.466-3.456,1.915-5.28c0.681-1.486,4.609-4.838-1.729-4.569
					c-1.146,0.364-0.419-1.161-0.618-1.777c0.925-11.466,0.925-21.973-0.417-32.634c-2.543-13.843-6.259-27.445-11.104-40.659
					c-0.208-0.55-1.761-1.307,0.291-2.724c3.69-3.883,1.731-5.785-2.54-6.929c-2.939-0.965-3.374-2.125-4.192-4.448
					c-0.644-1.703-1.239-3.482-1.942-5.203l-1.903-5.224c13.206,7.854,20.829,18.266,24.155,30.804 M170.37,105.479
					c-4.907,0.648-6.831,4.023-6.215,8.889c-0.105,2.137-0.589,2.989-3.656,2.448c-3.064-0.586-2.819,2.887-4.652,4.133
					c-1.354,0.385-5.784,0.131-0.218,4.322c0.393,1.304-0.953,1.721-1.468,2.557c-1.845,1.198-4.14,3.301-6.941,6.205
					c-0.247-0.705-0.215-1.479,0.09-2.16c-0.369-1.326,1.452-2.52-1.134-3.992c-2.594-1.377-2.701,0.747-2.355,2.089
					c1.551,5.296-2.416,4.227-6.386,3.193c-1.462,0.303-2.926-0.506-3.445-1.903c-0.264-1.061-0.053-2.181,0.577-3.072
					c9.79-9.121,20.058-19.1,32.84-25.468c1.362-0.381,2.338-2.029,3.662-2.414C172.738,103.425,173.082,104.737,170.37,105.479
					 M-111.856,75.053c-2.231-0.017-2.176-2.229-3.006-3.975c-5.058-10.59-5.167-22.327-7.101-33.288
					c-1.558-7.851-1.315-16.562-1.058-25.232c0.454-1.306-0.815-1.796,4.077-2.979c0.882-0.396,1.372-1.701-0.431-0.868
					c-3.523-0.547-3.06-1.816-3.484-2.724c-1.617-5.696-5.951-10.156-4.437-16.234c-0.417-0.838-0.38-3.03,1.031-4.755
					c0.485-1.285,3.642-3.825-1.695-3.517c-0.729-0.256-1.111-1.054-0.857-1.779c0.005-0.007,0.005-0.012,0.007-0.019
					c0.309-10.812,0.119-20.413-0.944-29.592l-5.592-39.347c-0.405-0.871-0.856-1.775,0.971-2.594
					c3.166-2.499,2.822-5.548-0.252-7.364c-2.652-0.96-2.151-2.266-2.124-4.407c1.396-3.753,2.11-7.723,2.105-11.725
					c5.477,11.454,9.186,21.574,9.305,33.312c-0.146,6.609,4.98,12.773,3.473,18.812c-0.151,6.552,0.555,12.663-1.416,20.014
					c-0.884,0.454-0.069,2.156,1.264,2.609c1.251,2.705,4.726,5.393,1.986,8.821c-1.906,2.955,3.074,1.792,4.797,3.154
					c1.308,0.507,2.082,4.444,1.198,4.845c-1.731-1.36-4.961,1.144-4.505,2.014c0.414,0.892,1.738,1.379,3.056,1.849
					c0.426,0.892-0.066,2.158-0.543,3.45l-3.867,12.551c2.527-1.084,5.255-1.615,7.999-1.56c2.24,0.068,2.188,2.23,0.385,3.064
					c-1.047-0.337-2.185-0.213-3.133,0.346c-5.342,0.325-8.105,3.682-7.246,5.479c1.744,1.358,4.781,3.154,6.549,4.516
					c0.871-0.379,1.306,0.492,0.426,0.891c-0.488,1.304-1.814,0.8-2.302,2.123c-0.879,0.378-0.879,0.378-0.474,1.285
					c-0.518,3.45-1.067,6.969-0.272,10.901c-0.273,0.672,0.053,1.435,0.722,1.707c0.034,0.014,0.068,0.025,0.105,0.036
					c1.746,0.543,3.633,0.434,5.305-0.311c-3.229,4.723-6.437,9.421-3.445,13.391c0.417,0.887,2.124,2.271,1.654,3.535
					c-0.465,1.308-1.835,3.032-3.23,4.739c-1.906,5.129,7.307,8.435,5.422,13.623c-0.488,1.308-1.397,1.686-1.879,2.996
					c0.426,0.863,0.846,1.772,2.16,2.245c1.698,3.519,3.375,7.06-0.708,9.96 M-137.691-36.464c-1.26-0.579-2.199-0.233-3.129,0.078
					c-5.372-0.167-8.435,2.937-7.756,4.804c1.626,1.525,4.471,3.571,6.098,5.097c0.935-0.342,1.26,0.568,0.353,0.912
					c-0.591,1.246-1.878,0.647-2.479,1.864c-0.926,0.325-0.926,0.325-0.598,1.271c-0.845,3.411-1.715,6.803-1.267,10.814
					c-0.339,0.673-0.066,1.493,0.609,1.83c0.009,0.007,0.023,0.012,0.032,0.019c1.705,0.678,3.597,0.722,5.333,0.121
					c-3.665,4.431-7.321,8.824-4.668,13.066c0.341,0.925,1.911,2.446,1.329,3.646c-0.596,1.253-2.103,2.884-3.661,4.428
					c-2.396,5.008,6.513,9.088,4.124,14.077c-0.584,1.216-1.521,1.562-2.13,2.792c0.261,1.056,0.966,1.949,1.933,2.449
					c1.352,3.646,2.712,7.295-1.633,9.87c-2.183-0.233-1.922-2.394-2.611-4.263c-4.055-10.978-3.074-22.715-3.997-33.727
					c-0.827-7.999,0.213-16.653,1.276-25.306c0.57-1.216-0.662-1.849,4.309-2.559c0.953-0.325,1.551-1.578-0.344-0.925
					c-3.445-0.815-2.85-2.085-3.193-2.994c-1.072-5.842-4.989-10.649-2.923-16.564c-0.343-0.923-0.089-3.081,1.453-4.641
					c0.6-1.234,3.99-3.484-1.342-3.631c-0.699-0.289-1.031-1.091-0.742-1.789c0.009-0.025,0.023-0.053,0.034-0.078
					c1.308-10.796,2.032-20.373,1.814-29.555l-1.977-39.709c-0.325-0.888-0.665-1.814,1.223-2.488
					c3.386-2.213,3.31-5.279,0.436-7.38c-2.538-1.218-1.934-2.412-1.686-4.59c1.718-3.608,2.79-7.489,3.166-11.469
					c4.38,11.885,7.156,22.279,6.194,34.02c-0.779,6.489,3.784,13.148,1.727,19.026c-0.763,6.511-0.623,12.682-3.249,19.79
					c-0.932,0.343-0.288,2.178,1.008,2.741c0.987,2.791,4.21,5.769,1.164,8.923c-2.146,2.795,2.891,2.053,4.467,3.558
					c1.273,0.618,1.69,4.625,0.774,4.952c-1.585-1.525-5.035,0.727-4.691,1.631c0.316,0.931,1.626,1.489,2.896,2.087
					c0.325,0.928-0.275,2.179-0.852,3.374l-5.053,12.155c2.625-0.834,5.396-1.111,8.136-0.816c2.222,0.252,1.965,2.395,0.101,3.081
					 M205.647-356.26c132.133-60.578,66.044-150.048,66.044-150.048c-12.074,0.815-2.192,23.928-26.424,21.734
					C93.379-498.182,162.016-327.652,28.93-427.323c0,0,49.496-78.987-54.519-62.694c0,0,20.735,53.734,17.982,58.234
					c-1.709,0.109-3.079,0.325-3.867,0.434c-62.614,8.256-83.207,58.29-38.648,97.204C66.264-232.589,162.341-289.46,184.937-41.304
					c8.661,95.439-85.872,164.653-181.878,165.865c-90.208,1.198-141.176-114.492-44.027-295.543c0,0,34.205-80.458-118.764-45.061
					c-4.21,0.975-13.075,9.249-15.623,14.33c-4.181,8.271-9.58,23.312-9.58,23.312s-17.923,42.704-18.168,122.832
					c-0.282,86.974,74.042,227.93,198.552,229.802c124.514,1.908,236.892-37.444,249.027-227.188
					c15.357-231.68-206.15-311.308-210.388-329.345c-0.57-2.445-1.205-4.625-1.821-6.816c1.634,4.788,1.562,5.729,1.562,5.729
					C38.554-400.398,134.204-323.406,205.647-356.26"/>
			</g>
		</g>
	</g>
</g>
</svg>
