<?xml version="1.0" encoding="utf-8"?>
<!-- Generator: Adobe Illustrator 16.0.0, SVG Export Plug-In . SVG Version: 6.00 Build 0)  -->
<!DOCTYPE svg PUBLIC "-//W3C//DTD SVG 1.1//EN" "http://www.w3.org/Graphics/SVG/1.1/DTD/svg11.dtd">
<svg version="1.1" id="Layer_1" xmlns="http://www.w3.org/2000/svg" xmlns:xlink="http://www.w3.org/1999/xlink" x="0px" y="0px"
	 width="300px" height="300px" viewBox="0 0 300 300" enable-background="new 0 0 300 300" xml:space="preserve">
<path fill="#FFFFFF" d="M149,11C71.676,11,9,73.676,9,151c0,77.315,62.676,140,140,140c77.323,0,140-62.685,140-140
	C289,73.676,226.323,11,149,11z M110,211H78v-93h32V211z M93.744,105h-0.192c-10.456,0-17.211-7.043-17.211-16.038
	c0-9.188,6.957-16.104,17.605-16.104c10.649,0,17.211,6.879,17.413,16.067C111.357,97.911,104.594,105,93.744,105z M222,211.742
	l-32,0.009V161.64c0-12.591-4.281-21.175-15.553-21.175c-8.602,0-13.447,5.792-15.695,11.384c-0.822,1.995-0.752,4.795-0.752,7.586
	V211h-31.453c0,0,0.412-84,0-93H158v13.356c4-6.378,11.577-15.47,28.106-15.47c20.483,0,35.894,13.387,35.894,42.158V211.742z"/>
</svg>
