<?xml version="1.0" encoding="utf-8"?>
<!-- Generator: Adobe Illustrator 16.0.0, SVG Export Plug-In . SVG Version: 6.00 Build 0)  -->
<!DOCTYPE svg PUBLIC "-//W3C//DTD SVG 1.1//EN" "http://www.w3.org/Graphics/SVG/1.1/DTD/svg11.dtd">
<svg version="1.1" id="Layer_1" xmlns="http://www.w3.org/2000/svg" xmlns:xlink="http://www.w3.org/1999/xlink" x="0px" y="0px"
	 width="1920px" height="1550.5px" viewBox="0 0 1920 1550.5" enable-background="new 0 0 1920 1550.5" xml:space="preserve">
<g id="Group_246" transform="translate(298.915 -20.36)" opacity="0.1">
	<path id="Path_187" fill="#9FCA48" d="M1237.646,272.068c40.159-116.635,224.918-185.092,383.671-191.767
		c-0.26,1.319-0.197,669.698,0.344,667.91c-34.824,0.344-69.445-5.295-102.358-16.667
		C1360.179,676.755,1182.854,431.188,1237.646,272.068z"/>
	<path id="Path_189" fill="#EC4A70" d="M-298.915,933.155c99.901-22.846,226.384,24.9,307.644,95.538
		c111.165,96.635,122.943,265.087,26.311,376.248c-67.353,77.481-212.814,131.752-332.313,124.813
		C-299.376,1529.769-298.604,931.571-298.915,933.155z"/>
	<path id="Path_215" fill="#378DE3" d="M-298.026,121.981c97.056-14.809,214.735,31.583,291.771,98.551
		c111.163,96.633,122.943,265.085,26.31,376.249c-64.744,74.479-201.66,127.511-318.572,125.335
		C-298.806,720.381-297.207,119.539-298.026,121.981z"/>
	<path id="Path_188" fill="#FCBA23" d="M1517.632,876.288c35.724,0.621,70.575,16.182,103.557,42.72
		c-0.451,0.433,0.448,508.358,0,510.103c-46.43,17.4-97.316,24.687-144.089,23.871c-134.808-2.354-242.179-113.542-239.825-248.344
		C1239.626,1069.839,1382.83,873.934,1517.632,876.288z"/>
</g>
</svg>
